<?xml version="1.0" encoding="UTF-8"?>
<svg id="Lado" xmlns="http://www.w3.org/2000/svg" viewBox="0 0 480 640">
  <defs>
    <style>
      .cls-1, .cls-2, .cls-3 {
        stroke-linecap: round;
      }

      .cls-1, .cls-2, .cls-3, .cls-4 {
        stroke: #1d1d1b;
      }

      .cls-1, .cls-4 {
        stroke-miterlimit: 10;
      }

      .cls-1, .cls-4, .cls-5 {
        fill: #1d1d1b;
      }

      .cls-6, .cls-2 {
        fill: #c7b299;
      }

      .cls-7 {
        fill: #6f4f2f;
      }

      .cls-2, .cls-3 {
        stroke-linejoin: round;
      }

      .cls-3 {
        fill: none;
      }

      .cls-8 {
        fill: #4f4f4f;
      }
    </style>
  </defs>
  <g id="Corpo-2" data-name="Corpo">
    <g id="Membros_Esq" data-name="Membros Esq">
      <g id="inf">
        <path id="Coxa" class="cls-6" d="m204.27,335.57c0,37.79,7.41,70.98,9.71,83.49,1.79,16.98,4.02,26.58,8.3,38.68,5.35,13.21,27.21,14.45,31.4,0,2.33-9.07,4.7-19.93,7.15-33.19,4.69-27.4,8.75-54.8,11.87-82.21,1.57-40.24-66.23-48.8-68.43-6.76Z"/>
        <path id="Canela" class="cls-6" d="m222.57,458.41c.2-21.07,31.26-17.14,31.11-.67.33,7.45-.16,15.34-1.85,23.87-4.67,49.78-9.13,107.11-7.47,125.81-3.64,9.04-24.41,10.82-24.32,0,.84-6.34,1.53-11.43,1.98-18.7.12-9.83-1.62-39.31-4.81-48.76-9.23-43.03,3.83-62.97,5.36-81.55Z"/>
        <g id="Pé-3" data-name="Pé">
          <path id="Base" class="cls-6" d="m220.4,602.34c-.35,3.91-.65,7.79-2.47,12.74-2.92,7.77-.69,11.82,4.69,13.6,5.83,1,11.95,1.31,19.44.48,5.66-1.2,11.67-1.09,18.19.86,4.64.61,8.92.77,12.93.57,3.7.08,5.87-5.95,2.2-9.19-5.19-3.06-12.09-5.97-20.01-8.81-3.1-1.53-7.13-5.97-11.11-10.25-2.49-7.27-22.24-13.62-23.86,0Z"/>
          <g id="Dedão">
            <path id="F3" class="cls-6" d="m273.02,620.36c-3.08-.85-4.41,5.41-1.28,6.37l4.98.92c2.02-.08,2.57-4.65.41-5.61-2.01-1.16-3.1-1.45-4.11-1.68Z"/>
            <path id="F2" class="cls-6" d="m276.81,621.9c-1.78.14-3.09,5.05-.08,5.75h3.83c2.1-.33,1.95-4.43.04-4.83-.98-.19-1.91-.26-3.78-.91Z"/>
            <path id="F1" class="cls-6" d="m280.43,622.8c1.57.38,2.24.33,3.47.59,1.95.28,1.58,4.42-.07,4.42l-3.94-.19c-2.63-.32-1.82-5.06.53-4.82Z"/>
          </g>
          <g id="Dedo2">
            <path id="F3-2" data-name="F3" class="cls-6" d="m272.86,623.86l4.74.54c1.59.64,1.27,3.7-.46,3.77l-4.68-.47c-2.21-.52-2.13-3.95.4-3.84Z"/>
            <path id="F2-2" data-name="F2" class="cls-6" d="m276.94,624.32c-1.64.02-2.28,3.43-.34,3.83l4.34.28c1.54,0,2.09-3.02.44-3.43l-4.43-.67Z"/>
            <path id="F1-2" data-name="F1" class="cls-6" d="m280.58,624.85l2.84.58c1.71.33,1.71,3.19-.1,3.2l-2.84-.3c-2.05-.52-1.38-3.67.09-3.47Z"/>
          </g>
          <g id="Dedo3">
            <path id="F3-3" data-name="F3" class="cls-6" d="m272.5,624.84l4.68.53c1.57.63,1.26,3.66-.46,3.72l-4.62-.47c-2.18-.51-2.1-3.9.39-3.79Z"/>
            <path id="F2-3" data-name="F2" class="cls-6" d="m276.52,625.3c-1.62.02-2.25,3.38-.34,3.78l4.28.27c1.52,0,2.07-2.98.43-3.39l-4.37-.66Z"/>
            <path id="F1-3" data-name="F1" class="cls-6" d="m280.12,625.81l2.81.57c1.69.32,1.69,3.15-.09,3.16l-2.8-.3c-2.02-.52-1.36-3.62.09-3.43Z"/>
          </g>
          <g id="Dedo4">
            <path id="F3-4" data-name="F3" class="cls-6" d="m271.43,626.1l4.63.53c1.56.62,1.25,3.62-.45,3.68l-4.57-.46c-2.16-.51-2.08-3.86.39-3.75Z"/>
            <path id="F2-4" data-name="F2" class="cls-6" d="m275.41,626.56c-1.6.02-2.23,3.35-.34,3.74l4.24.27c1.5,0,2.05-2.95.43-3.35l-4.33-.65Z"/>
            <path id="F1-4" data-name="F1" class="cls-6" d="m278.97,627.07l2.78.56c1.67.32,1.67,3.11-.09,3.12l-2.77-.29c-2-.51-1.35-3.58.09-3.39Z"/>
          </g>
          <g id="Dedinho">
            <path id="F3-5" data-name="F3" class="cls-6" d="m269.2,627.63l3.78.43c1.27.51,1.02,2.95-.37,3.01l-3.73-.38c-1.76-.41-1.7-3.15.32-3.06Z"/>
            <path id="F2-5" data-name="F2" class="cls-6" d="m272.46,628c-1.31.02-1.82,2.73-.27,3.05l3.46.22c1.22,0,1.67-2.41.35-2.74l-3.53-.53Z"/>
            <path id="F1-5" data-name="F1" class="cls-6" d="m275.36,628.41l2.27.46c1.36.26,1.37,2.54-.08,2.55l-2.26-.24c-1.63-.42-1.1-2.93.07-2.77Z"/>
          </g>
        </g>
      </g>
      <g id="Sup">
        <path id="Braço" class="cls-6" d="m257.17,166c-.19,5.83-4.6,55.82-7.77,69.11-3.53,18.21-5.38,23.85-6.71,32.1-2.37,15.02-31.61,17.7-31.08-3.17,0-7.14.17-18.04.17-26.43-1.44-30.26,6.46-75.85,8.38-78.13,7.51-25.27,37.86-19.62,37,6.51Z"/>
        <path id="Ante_B" data-name="Ante B" class="cls-6" d="m211.29,270.8c-.33,2.1-.12,2.88-.2,5.43,3.36,22,12.29,57.94,21.77,95.23,4.15,5.87,13.72,5.17,14.54-4.05-1.02-6.17-.86-14.56-.18-26.78.27-22.04,1.31-44.76-3.48-60.13-.4-4.01-.66-6.86-1.59-10.91-4.7-13.89-29.5-12.56-30.85,1.21Z"/>
        <g id="Mão-3" data-name="Mão">
          <path id="Palma" class="cls-6" d="m232.62,370.54c1.38-4.25,9.41-9.7,14.88-.9,2.87,10.37,4.49,16.98,5.04,25.16-.86,7.56-10.8,8.01-14.3,4.18-1.58-2.44-2.43-4.99-3.08-10-1.53-5.17-5.86-6.46-2.53-18.44Z"/>
          <g id="Midinho-3" data-name="Midinho">
            <path id="F3-6" data-name="F3" class="cls-6" d="m238.64,391.85c-.19-2.81,3.55-2.89,3.99-.88l1.26,10.53c-.2,2.15-3.36,2.28-3.91.67l-1.34-10.32Z"/>
            <path id="F2-6" data-name="F2" class="cls-6" d="m240.37,401.46c.97-2.59,4.03-1.51,3.44.84l-2.63,7.04c-.97,2.52-3.99,1.43-3.18-.95l2.37-6.93Z"/>
            <path id="F1-6" data-name="F1" class="cls-6" d="m238,408.39l-2.98,5.52c-.75,1.43,1.06,2.09,2.05,1.1l3.85-5.14c1.08-2.04-1.58-3.63-2.92-1.47Z"/>
          </g>
          <g id="Anelar-3" data-name="Anelar">
            <path id="F3-7" data-name="F3" class="cls-6" d="m241.49,394.64c0-3.11,4.13-2.92,4.46-.67l.6,11.71c-.38,2.36-3.86,2.27-4.36.45l-.7-11.49Z"/>
            <path id="F2-7" data-name="F2" class="cls-6" d="m242.69,405.36c1.26-2.79,4.54-1.36,3.72,1.18l-3.42,7.57c-1.26,2.7-4.49,1.28-3.43-1.28l3.13-7.47Z"/>
            <path id="F1-7" data-name="F1" class="cls-6" d="m239.56,412.83l-3.69,5.86c-.93,1.52,1.01,2.39,2.18,1.36l4.61-5.38c1.34-2.17-1.47-4.13-3.1-1.84Z"/>
          </g>
          <g id="Medio-3" data-name="Medio">
            <path id="F3-8" data-name="F3" class="cls-6" d="m245.11,395.09c.16-3.31,4.54-2.89,4.77-.48l.03,12.49c-.53,2.49-4.23,2.21-4.66.25l-.14-12.25Z"/>
            <path id="F2-8" data-name="F2" class="cls-6" d="m245.82,406.56c1.48-2.9,4.9-1.21,3.89,1.45l-4.03,7.87c-1.48,2.81-4.85,1.13-3.58-1.55l3.72-7.77Z"/>
            <path id="F1-8" data-name="F1" class="cls-6" d="m242.1,414.33l-4.24,6.04c-1.07,1.57.95,2.59,2.24,1.57l5.19-5.48c1.54-2.23-1.35-4.47-3.2-2.12Z"/>
          </g>
          <g id="Indicador-3" data-name="Indicador">
            <path id="F3-9" data-name="F3" class="cls-6" d="m248.12,394.64c0-3.11,4.13-2.92,4.46-.67l.6,11.71c-.38,2.36-3.86,2.27-4.36.45l-.7-11.49Z"/>
            <path id="F2-9" data-name="F2" class="cls-6" d="m249.32,405.36c1.26-2.79,4.54-1.36,3.72,1.18l-3.42,7.57c-1.26,2.7-4.49,1.28-3.43-1.28l3.13-7.47Z"/>
            <path id="F1-9" data-name="F1" class="cls-6" d="m246.19,412.83l-3.69,5.86c-.93,1.52,1.01,2.39,2.18,1.36l4.61-5.38c1.34-2.17-1.47-4.13-3.1-1.84Z"/>
          </g>
          <g id="Polegar-3" data-name="Polegar">
            <path id="F3-10" data-name="F3" class="cls-6" d="m246.58,389.87c-.37-3.16,3.78-4.39,4.86-2.34.94,2.35,1.63,4.2,2.31,7.36.35,2.81-2.92,3.74-4.12,2.31-1.15-1.96-2.15-4.47-3.06-7.33Z"/>
            <path id="F2-10" data-name="F2" class="cls-6" d="m249.49,396.3c-.06-2.49,3.95-3.07,4.54-.84.31,2.18.63,3.99.82,6.18-.16,2.06-3.68,2.77-4.15.94-.51-1.91-.9-4.01-1.21-6.27Z"/>
            <path id="F1-10" data-name="F1" class="cls-6" d="m250.55,402.42c.68-3.21,4.43-2.57,4.35-.23-.22,1.62-.56,4.41-.7,5.68-.69,1.65-3.15,1.39-3.43.05-.47-1.47-.3-3.45-.21-5.51Z"/>
          </g>
        </g>
      </g>
    </g>
    <path id="Quadril" class="cls-6" d="m208.86,298.73c-2.35,13.5-5.18,15.67-4.54,36.22,3.57,27.57,59.62,34.09,69.32,8.3,3.32-29.36,0-22.24,2.68-41.49-1.34-17.81-63-22.68-67.46-3.03Z"/>
    <path id="Tronco" class="cls-6" d="m218.1,130.57l-6.51,15.13c-7.45,21.77-6.08,40.37,0,57.26,3.96,11.3,7.01,21.93,7.47,30.64.99,8.86,3.73,13.79-2.3,40.4-3.98,8.08-6.76,18.53-9,30.06,2.3,22.21,67.79,22.98,68.55,0-.08-23.17,1.2-46.41,3.83-69.7,2.3-19.72-1.01-36.2-1.15-52.47s-5.82-34.34-19.71-51.32c-4.14-9.57-38.39-11.59-41.19,0Z"/>
    <path id="Pescoço" class="cls-6" d="m219.93,102.33c.57,3.93,1.82,6.51.86,18.29,0,0-2.26,8.38-2.97,11.01-1.44,9.96,43.66,8.62,41.55-2.87-2.2-11.2,1.33-18.9,6.22-25.76-13.12-15.79-41.17-18.67-45.67-.67Z"/>
    <g id="Membros_Dir" data-name="Membros Dir">
      <g id="Inf">
        <path id="Coxa-2" data-name="Coxa" class="cls-6" d="m204.44,335.72c0,37.79,7.41,70.98,9.71,83.49,1.79,16.98,4.02,26.58,8.3,38.68,5.35,13.21,27.21,14.45,31.4,0,2.33-9.07,4.7-19.93,7.15-33.19,4.69-27.4,8.75-54.8,11.87-82.21,1.57-40.24-66.23-48.8-68.43-6.76Z"/>
        <path id="Canela-2" data-name="Canela" class="cls-6" d="m222.75,458.57c.2-21.07,31.26-17.14,31.11-.67.33,7.45-.16,15.34-1.85,23.87-4.67,49.78-9.13,107.11-7.47,125.81-3.64,9.04-24.41,10.82-24.32,0,.84-6.34,1.53-11.43,1.98-18.7.12-9.83-1.62-39.31-4.81-48.76-9.23-43.03,3.83-62.97,5.36-81.55Z"/>
        <g id="Pé-4" data-name="Pé">
          <path id="Base-2" data-name="Base" class="cls-6" d="m220.58,602.49c-.35,3.91-.65,7.79-2.47,12.74-2.92,7.77-.69,11.82,4.69,13.6,5.83,1,11.95,1.31,19.44.48,5.66-1.2,11.67-1.09,18.19.86,4.64.61,8.92.77,12.93.57,3.7.08,5.87-5.95,2.2-9.19-5.19-3.06-12.09-5.97-20.01-8.81-3.1-1.53-7.13-5.97-11.11-10.25-2.49-7.27-22.24-13.62-23.86,0Z"/>
          <g id="Dedão-2" data-name="Dedão">
            <path id="F3-11" data-name="F3" class="cls-6" d="m273.2,620.52c-3.08-.85-4.41,5.41-1.28,6.37l4.98.92c2.02-.08,2.57-4.65.41-5.61-2.01-1.16-3.1-1.45-4.11-1.68Z"/>
            <path id="F2-11" data-name="F2" class="cls-6" d="m276.98,622.06c-1.78.14-3.09,5.05-.08,5.75h3.83c2.1-.33,1.95-4.43.04-4.83-.98-.19-1.91-.26-3.78-.91Z"/>
            <path id="F1-11" data-name="F1" class="cls-6" d="m280.6,622.95c1.57.38,2.24.33,3.47.59,1.95.28,1.58,4.42-.07,4.42l-3.94-.19c-2.63-.32-1.82-5.06.53-4.82Z"/>
          </g>
          <g id="Dedo2-2" data-name="Dedo2">
            <path id="F3-12" data-name="F3" class="cls-6" d="m273.03,624.01l4.74.54c1.59.64,1.27,3.7-.46,3.77l-4.68-.47c-2.21-.52-2.13-3.95.4-3.84Z"/>
            <path id="F2-12" data-name="F2" class="cls-6" d="m277.11,624.48c-1.64.02-2.28,3.43-.34,3.83l4.34.28c1.54,0,2.09-3.02.44-3.43l-4.43-.67Z"/>
            <path id="F1-12" data-name="F1" class="cls-6" d="m280.76,625l2.84.58c1.71.33,1.71,3.19-.1,3.2l-2.84-.3c-2.05-.52-1.38-3.67.09-3.47Z"/>
          </g>
          <g id="Dedo3-2" data-name="Dedo3">
            <path id="F3-13" data-name="F3" class="cls-6" d="m272.67,624.99l4.68.53c1.57.63,1.26,3.66-.46,3.72l-4.62-.47c-2.18-.51-2.1-3.9.39-3.79Z"/>
            <path id="F2-13" data-name="F2" class="cls-6" d="m276.7,625.45c-1.62.02-2.25,3.38-.34,3.78l4.28.27c1.52,0,2.07-2.98.43-3.39l-4.37-.66Z"/>
            <path id="F1-13" data-name="F1" class="cls-6" d="m280.3,625.97l2.81.57c1.69.32,1.69,3.15-.09,3.16l-2.8-.3c-2.02-.52-1.36-3.62.09-3.43Z"/>
          </g>
          <g id="Dedo4-2" data-name="Dedo4">
            <path id="F3-14" data-name="F3" class="cls-6" d="m271.6,626.26l4.63.53c1.56.62,1.25,3.62-.45,3.68l-4.57-.46c-2.16-.51-2.08-3.86.39-3.75Z"/>
            <path id="F2-14" data-name="F2" class="cls-6" d="m275.58,626.71c-1.6.02-2.23,3.35-.34,3.74l4.24.27c1.5,0,2.05-2.95.43-3.35l-4.33-.65Z"/>
            <path id="F1-14" data-name="F1" class="cls-6" d="m279.14,627.22l2.78.56c1.67.32,1.67,3.11-.09,3.12l-2.77-.29c-2-.51-1.35-3.58.09-3.39Z"/>
          </g>
          <g id="Dedinho-2" data-name="Dedinho">
            <path id="F3-15" data-name="F3" class="cls-6" d="m269.38,627.78l3.78.43c1.27.51,1.02,2.95-.37,3.01l-3.73-.38c-1.76-.41-1.7-3.15.32-3.06Z"/>
            <path id="F2-15" data-name="F2" class="cls-6" d="m272.63,628.15c-1.31.02-1.82,2.73-.27,3.05l3.46.22c1.22,0,1.67-2.41.35-2.74l-3.53-.53Z"/>
            <path id="F1-15" data-name="F1" class="cls-6" d="m275.54,628.57l2.27.46c1.36.26,1.37,2.54-.08,2.55l-2.26-.24c-1.63-.42-1.1-2.93.07-2.77Z"/>
          </g>
        </g>
      </g>
      <g id="roupa">
        <g id="Tecido">
          <path id="trás" class="cls-7" d="m215.92,305.85c-10.53,20.34-10.76,50.01-7.09,83.74l-2.02,8.28c-5.01-29.13-10.54-58.02,1.6-95.78l7.51,3.77Z"/>
          <path class="cls-7" d="m271.05,316.89c2.7,19.97.03,47.13-5,75.3,2.36-3.19,4.66-7.65,6.84-14.53,2.42-20.14,4.57-39.13,3.42-60.77h-5.26Z"/>
        </g>
        <path id="Corda" class="cls-7" d="m208.79,299.14c26.28,13.54,48.59,17.97,67.66,14.28.6,1.31,1.02,2.38.26,4.34-19.52,2.2-40.64-1.38-61.22-10.93-2.51-1.17-5.02-2.42-7.51-3.77-.27-1.83.08-3.07.82-3.92Z"/>
      </g>
      <g id="Sup-2" data-name="Sup">
        <path id="Braço-2" data-name="Braço" class="cls-6" d="m257.17,166c-.19,5.83-4.6,55.82-7.77,69.11-3.53,18.21-5.38,23.85-6.71,32.1-2.37,15.02-31.61,17.7-31.08-3.17,0-7.14.17-18.04.17-26.43-1.44-30.26,6.46-75.85,8.38-78.13,7.51-25.27,37.86-19.62,37,6.51Z"/>
        <path id="Ante_B-2" data-name="Ante B" class="cls-6" d="m211.29,270.8c-.33,2.1-.12,2.88-.2,5.43,3.36,22,12.29,57.94,21.77,95.23,4.15,5.87,13.72,5.17,14.54-4.05-1.02-6.17-.86-14.56-.18-26.78.27-22.04,1.31-44.76-3.48-60.13-.4-4.01-.66-6.86-1.59-10.91-4.7-13.89-29.5-12.56-30.85,1.21Z"/>
        <g id="Mão-4" data-name="Mão">
          <path id="Palma-2" data-name="Palma" class="cls-6" d="m232.62,370.54c1.38-4.25,9.41-9.7,14.88-.9,2.87,10.37,4.49,16.98,5.04,25.16-.86,7.56-10.8,8.01-14.3,4.18-1.58-2.44-2.43-4.99-3.08-10-1.53-5.17-5.86-6.46-2.53-18.44Z"/>
          <g id="Polegar-4" data-name="Polegar">
            <path id="F3-16" data-name="F3" class="cls-6" d="m246.58,389.87c-.37-3.16,3.78-4.39,4.86-2.34.94,2.35,1.63,4.2,2.31,7.36.35,2.81-2.92,3.74-4.12,2.31-1.15-1.96-2.15-4.47-3.06-7.33Z"/>
            <path id="F2-16" data-name="F2" class="cls-6" d="m249.49,396.3c-.06-2.49,3.95-3.07,4.54-.84.31,2.18.63,3.99.82,6.18-.16,2.06-3.68,2.77-4.15.94-.51-1.91-.9-4.01-1.21-6.27Z"/>
            <path id="F1-16" data-name="F1" class="cls-6" d="m250.55,402.42c.68-3.21,4.43-2.57,4.35-.23-.22,1.62-.56,4.41-.7,5.68-.69,1.65-3.15,1.39-3.43.05-.47-1.47-.3-3.45-.21-5.51Z"/>
          </g>
          <g id="Indicador-4" data-name="Indicador">
            <path id="F3-17" data-name="F3" class="cls-6" d="m248.12,394.64c0-3.11,4.13-2.92,4.46-.67l.6,11.71c-.38,2.36-3.86,2.27-4.36.45l-.7-11.49Z"/>
            <path id="F2-17" data-name="F2" class="cls-6" d="m249.32,405.36c1.26-2.79,4.54-1.36,3.72,1.18l-3.42,7.57c-1.26,2.7-4.49,1.28-3.43-1.28l3.13-7.47Z"/>
            <path id="F1-17" data-name="F1" class="cls-6" d="m246.19,412.83l-3.69,5.86c-.93,1.52,1.01,2.39,2.18,1.36l4.61-5.38c1.34-2.17-1.47-4.13-3.1-1.84Z"/>
          </g>
          <g id="Medio-4" data-name="Medio">
            <path id="F3-18" data-name="F3" class="cls-6" d="m245.11,395.09c.16-3.31,4.54-2.89,4.77-.48l.03,12.49c-.53,2.49-4.23,2.21-4.66.25l-.14-12.25Z"/>
            <path id="F2-18" data-name="F2" class="cls-6" d="m245.82,406.56c1.48-2.9,4.9-1.21,3.89,1.45l-4.03,7.87c-1.48,2.81-4.85,1.13-3.58-1.55l3.72-7.77Z"/>
            <path id="F1-18" data-name="F1" class="cls-6" d="m242.1,414.33l-4.24,6.04c-1.07,1.57.95,2.59,2.24,1.57l5.19-5.48c1.54-2.23-1.35-4.47-3.2-2.12Z"/>
          </g>
          <g id="Anelar-4" data-name="Anelar">
            <path id="F3-19" data-name="F3" class="cls-6" d="m241.49,394.64c0-3.11,4.13-2.92,4.46-.67l.6,11.71c-.38,2.36-3.86,2.27-4.36.45l-.7-11.49Z"/>
            <path id="F2-19" data-name="F2" class="cls-6" d="m242.69,405.36c1.26-2.79,4.54-1.36,3.72,1.18l-3.42,7.57c-1.26,2.7-4.49,1.28-3.43-1.28l3.13-7.47Z"/>
            <path id="F1-19" data-name="F1" class="cls-6" d="m239.56,412.83l-3.69,5.86c-.93,1.52,1.01,2.39,2.18,1.36l4.61-5.38c1.34-2.17-1.47-4.13-3.1-1.84Z"/>
          </g>
          <g id="Midinho-4" data-name="Midinho">
            <path id="F3-20" data-name="F3" class="cls-6" d="m238.64,391.85c-.19-2.81,3.55-2.89,3.99-.88l1.26,10.53c-.2,2.15-3.36,2.28-3.91.67l-1.34-10.32Z"/>
            <path id="F2-20" data-name="F2" class="cls-6" d="m240.37,401.46c.97-2.59,4.03-1.51,3.44.84l-2.63,7.04c-.97,2.52-3.99,1.43-3.18-.95l2.37-6.93Z"/>
            <path id="F1-20" data-name="F1" class="cls-6" d="m238,408.39l-2.98,5.52c-.75,1.43,1.06,2.09,2.05,1.1l3.85-5.14c1.08-2.04-1.58-3.63-2.92-1.47Z"/>
          </g>
        </g>
      </g>
    </g>
  </g>
  <g id="cabeça">
    <path id="Rosto" class="cls-6" d="m294.61,59.24c-2.12,5.56-2.6,5.66-3.16,10.34-.31,2.55,1.67,8.27,3.83,10.44,1.34,1.34,1.82,3.26.51,4.7-.33.36-2.44.65-2.76,1-1.02,1.11-1.82,2.44-.07,4.49,1.64,1.92.73,2.8-.46,3.79-1.32,1.1-2.23.06-4.31.38,2.62.16,3.35,3.41,1.56,4.5-1.67,1.01-3.06,2.92-2.9,5.27.72,10.74-9.2,8.48-25.42,1.27-3.74-1.66-18.43,18.26-39.75,1.41-8.94-13.4-21.83-28.98-22.72-45.45-1.48-27.25,22.22-52.98,47.97-52.98,21.62,0,39.15,15.23,44.43,36.38,1.01,4.04,5.33,10.71,3.26,14.46Z"/>
    <path id="Cabelo_Base" data-name="Cabelo Base" class="cls-8" d="m219.07,103l8.99-2.49,11.94-33.13,7.73-8.62,6.57,12.83,4.21-1.91,1.19-15.38,15.47-5.18-1.73-9.31,16.4-2.49s-12.38-34.47-47.73-29.05c-20.22,3.1-39.59,22.39-43.09,44.14-3.71,23.02,20.04,50.59,20.04,50.59Z"/>
    <path id="Orelha" class="cls-2" d="m247.02,62.34c-1.36-1.07-3.26-1.81-5.55-2.3-1.91.43-3.61,1.7-4.91,4.53-.5,2.1-.53,4.53,0,7.34,1.15,2.43,3.57,5.46,4.87,6.86s2.08,3.49,3.58,4.75c2.3,1.28,4.86.64,6.01-1.45"/>
    <g id="Visão-2" data-name="Visão">
      <ellipse id="Olho" class="cls-1" cx="285.62" cy="68.41" rx=".94" ry="1.99"/>
      <path id="Cilios" class="cls-3" d="m279.34,66.19s3.46-1.2,8.34.81"/>
      <g id="Sombrancelha">
        <path class="cls-5" d="m289.82,59.98c-1.83.08-3.34-.34-5.04-.8-1.69-.39-3.47-.14-5.09.16,2.13-1.53,5.39-1.66,7.9-1.01.84.33,1.66.77,2.29,1.51.05.05,0,.14-.06.14h0Z"/>
      </g>
    </g>
    <path id="Cabelo-2" data-name="Cabelo" class="cls-4" d="m295.21,44.79c-2.92-9.03-7.08-17.59-13.53-25.28-12.79-12.32-36.6-19.51-49.02-13.15-35.74,6.64-39.06,47.74-37.15,61.53,1.19,9.76,5.56,17.03,9.45,21.45,8.43-9.06,21.76-15.86,41.11-30.81,3.59-2.76,7.85-5.89,12.51-9.27-.83-5.74-3.15-13.14-6.38-21.57,3.77,5.13,6.8,12.33,9.45,22.98,8.1-1.11,13.65-2.59,15.96-4.53-.49-6.5-2.59-14.11-5.49-22.28,4.95,8.1,8.89,15.6,9.96,21.45,9.16.17,13.24-.02,13.15-.51Z"/>
  </g>
</svg>