<?xml version="1.0" encoding="UTF-8"?>
<svg id="Personagem" xmlns="http://www.w3.org/2000/svg" viewBox="0 0 480 640">
  <defs>
    <style>
      .cls-1 {
        fill: none;
      }

      .cls-1, .cls-2 {
        stroke: #000;
        stroke-miterlimit: 10;
      }

      .cls-3 {
        fill: #5a4025;
      }

      .cls-4 {
        fill: #c7b299;
      }

      .cls-5 {
        fill: #6f4f2f;
      }
    </style>
  </defs>
  <g id="Corpo">
    <path id="Quadril" class="cls-4" d="m233.56,372.54c-11.82-20.69-28.19-33.28-50.02-31.35,1.33-14.67,5.93-28.84,9.34-41.35,2.67-38.69,89.38-33.35,93.38,1.33,5.34,25.35,1.33,24.01,5.34,44.02-17.05-2.09-35,6.98-49.97,27.35-1.88,1.11-5.46,1.09-8.06,0Z"/>
    <path id="Tronco" class="cls-4" d="m222.89,124.42l-8,8c-4.17,2.68-11.51,6.46-24.01,12.01-11.57,9.33-13.53,22.21-9.34,37.35,5.22,13.4,7.68,30.84,8,50.69,1.33,15.89,3.45,35.24,4,56.03v8c-.97,30.52,88.31,32.14,92.04,1.33-.19-2.92-.23-5.75,0-8.44,3.04-22.68,6.48-48.72,8-58.26,2.29-16.59,4.87-32.39,8-46.69,5.85-18.99,3.85-32.36-8-38.69-8-4-14.17-6.82-21.34-12.01l-12.01-12.01c-.21-5.76-37.56-3.09-37.35,2.67Z"/>
    <polyline id="Pescoço" class="cls-4" points="261.58 129.75 257.57 109.74 223.17 111.04 220.22 129.75"/>
    <g id="Membros">
      <g id="Inferiores">
        <g id="Dir">
          <path id="Coxa" class="cls-4" d="m185.54,327.18l-8,58.7c-3.41,24.84-2.8,52.89,0,82.71,0,14.67,26.68,20.01,32.02,1.33l6.67-21.34c1.88-5.83,3.62-13.82,5.34-22.68,2.34-12.03,4.58-23.32,6.67-33.35,1.33-6.67,5.19-19.77,8-33.35,9.34-38.69-46.69-60.03-50.69-32.02Z"/>
          <path id="Canela" class="cls-4" d="m177.64,470.12c1.2-23.57,36.05-25.54,32.58-1.11-.32,2.29-.29,3.14,0,4.91.59,7.1-.24,14.88,0,22.64.67,21.38-6,32.05-7.34,44.06-2.67,26.68-6.67,37.35-5.34,64.03-1.33,9.34-18.68,8-18.8,0,.13-17.34-3.87-49.36-4.54-65.36-2.33-16.79-2.04-34.75,1-49.97l2.44-19.2Z"/>
          <g id="Pé">
            <path id="Base" class="cls-4" d="m178.87,601.98c1.5-12.12,17.34-12.01,18.9,0,.33,6.73,1.33,13.36,1.78,17.34.67,4,2,5.34,1.33,8-1.33,5.34-24.68,0-26.01-1.33-.72-.92,0-4,.67-5.34.97-3.4,1.23-3.98,2-6.67.62-3.77,1.04-7.81,1.33-12.01Z"/>
            <g id="Dedão">
              <path id="F2" class="cls-4" d="m193.54,625.99l.76,5.64c1.91,3.69,8.58,2.36,7.92-.98l-1.56-7.05c-1.77-1.62-7.06-.3-7.11,2.38Z"/>
              <ellipse id="F1" class="cls-4" cx="198.21" cy="630.66" rx="4" ry="4.67"/>
            </g>
            <g id="_Índex" data-name="Índex">
              <path id="F2-2" data-name="F2" class="cls-4" d="m188.27,625.76l.17,6.73c.47,2.09,4.18,3.61,5.43.18l-.25-5.27c.16-4.17-5.22-5.55-5.35-1.64Z"/>
              <ellipse id="F1-2" data-name="F1" class="cls-4" cx="191.14" cy="632" rx="2.67" ry="3.33"/>
            </g>
            <g id="Médio">
              <path id="F2-3" data-name="F2" class="cls-4" d="m184.06,627.46l-.13,4.95c.27,1.55,2.93,2.81,3.98.34l.02-3.88c.28-3.06-3.62-4.28-3.87-1.41Z"/>
              <ellipse id="F1-3" data-name="F1" class="cls-4" cx="185.94" cy="632.66" rx="2" ry="2.67"/>
            </g>
            <g id="Anelar">
              <path id="F2-4" data-name="F2" class="cls-4" d="m179.4,626.13l-.13,4.95c.27,1.55,2.93,2.81,3.98.34l.02-3.88c.28-3.06-3.62-4.28-3.87-1.41Z"/>
              <ellipse id="F1-4" data-name="F1" class="cls-4" cx="181.27" cy="631.33" rx="2" ry="2.67"/>
            </g>
            <g id="Mínimo">
              <path id="F2-5" data-name="F2" class="cls-4" d="m174.73,624.66l-.13,4.67c.27,1.47,2.93,2.65,3.98.32l.02-3.66c.28-2.88-3.62-4.04-3.87-1.33Z"/>
              <ellipse id="F1-5" data-name="F1" class="cls-4" cx="176.6" cy="629.33" rx="2" ry="2.67"/>
            </g>
          </g>
        </g>
        <g id="Esq">
          <path id="Coxa-2" data-name="Coxa" class="cls-4" d="m289.76,327.18l8,58.7c3.41,24.84,2.8,52.89,0,82.71,0,14.67-26.68,20.01-32.02,1.33l-6.67-21.34c-1.88-5.83-3.62-13.82-5.34-22.68-2.34-12.03-4.58-23.32-6.67-33.35-1.33-6.67-5.19-19.77-8-33.35-9.34-38.69,46.69-60.03,50.69-32.02Z"/>
          <path id="Canela-2" data-name="Canela" class="cls-4" d="m297.66,470.12c-1.2-23.57-36.05-25.54-32.58-1.11.32,2.29.29,3.14,0,4.91-.59,7.1.24,14.88,0,22.64-.67,21.38,6,32.05,7.34,44.06,2.67,26.68,6.67,37.35,5.34,64.03,1.33,9.34,18.68,8,18.8,0-.13-17.34,3.87-49.36,4.54-65.36,2.33-16.79,2.04-34.75-1-49.97l-2.44-19.2Z"/>
          <g id="Pé-2" data-name="Pé">
            <path id="Base-2" data-name="Base" class="cls-4" d="m296.43,601.98c-1.5-12.12-17.34-12.01-18.9,0-.33,6.73-1.33,13.36-1.78,17.34-.67,4-2,5.34-1.33,8,1.33,5.34,24.68,0,26.01-1.33.72-.92,0-4-.67-5.34-.97-3.4-1.23-3.98-2-6.67-.62-3.77-1.04-7.81-1.33-12.01Z"/>
            <g id="Dedão-2" data-name="Dedão">
              <path id="F2-6" data-name="F2" class="cls-4" d="m281.76,625.99l-.76,5.64c-1.91,3.69-8.58,2.36-7.92-.98l1.56-7.05c1.77-1.62,7.06-.3,7.11,2.38Z"/>
              <ellipse id="F1-6" data-name="F1" class="cls-4" cx="277.09" cy="630.66" rx="4" ry="4.67"/>
            </g>
            <g id="_Índex-2" data-name="Índex">
              <path id="F2-7" data-name="F2" class="cls-4" d="m287.03,625.76l-.17,6.73c-.47,2.09-4.18,3.61-5.43.18l.25-5.27c-.16-4.17,5.22-5.55,5.35-1.64Z"/>
              <ellipse id="F1-7" data-name="F1" class="cls-4" cx="284.16" cy="632" rx="2.67" ry="3.33"/>
            </g>
            <g id="Médio-2" data-name="Médio">
              <path id="F2-8" data-name="F2" class="cls-4" d="m291.24,627.46l.13,4.95c-.27,1.55-2.93,2.81-3.98.34l-.02-3.88c-.28-3.06,3.62-4.28,3.87-1.41Z"/>
              <ellipse id="F1-8" data-name="F1" class="cls-4" cx="289.36" cy="632.66" rx="2" ry="2.67"/>
            </g>
            <g id="Anelar-2" data-name="Anelar">
              <path id="F2-9" data-name="F2" class="cls-4" d="m295.91,626.13l.13,4.95c-.27,1.55-2.93,2.81-3.98.34l-.02-3.88c-.28-3.06,3.62-4.28,3.87-1.41Z"/>
              <ellipse id="F1-9" data-name="F1" class="cls-4" cx="294.03" cy="631.33" rx="2" ry="2.67"/>
            </g>
            <g id="Mínimo-2" data-name="Mínimo">
              <path id="F2-10" data-name="F2" class="cls-4" d="m300.57,624.66l.13,4.67c-.27,1.47-2.93,2.65-3.98.32l-.02-3.66c-.28-2.88,3.62-4.04,3.87-1.33Z"/>
              <ellipse id="F1-10" data-name="F1" class="cls-4" cx="298.7" cy="629.33" rx="2" ry="2.67"/>
            </g>
          </g>
        </g>
      </g>
      <g id="Roupa">
        <path id="Tecido" class="cls-5" d="m199.86,300.76c.79,14.67.88,28.91.09,42.62-1.26,8.48-2.29,16.56-2.55,23.33-.43,6.28-.88,12.84-1.36,19.92,11.52.88,22.16,2.05,31.67,3.58,7.25.77,15.75-.34,24.86-2.38,8.52-1.43,18.63-1.83,29.8-1.53-.64-7.89-1.21-15.59-1.53-22.65-.29-10.82-.78-20.88-2.04-27.93-1.76-7.73-2.03-19.58-2.12-31.91-26.09,7.75-50.93,5.77-76.81-3.04Z"/>
        <path id="Corda" class="cls-3" d="m193.54,295.61c27.52,12.01,60.21,17.29,91.99,1.33.63.19.79.55.21,1.18.94.06,1.28.87.62,1.62,1.04.11.89.96.02,1.53-26.49,13.23-56.11,15.76-93.56-1.27-.59-.2-.42-1.43.05-1.5-.22-.38-.13-1.1.27-1.33-.23-.5-.16-1.42.4-1.56Z"/>
      </g>
      <g id="Superiores">
        <g id="Dir-2" data-name="Dir">
          <path id="Braço" class="cls-4" d="m190.87,144.43c-4.09.51-6.67,1.33-11.34,5.34-6.82,6.15-13.17,17.92-16.67,28.01-8.97,14.53-16.5,34.46-25.35,58.7-2,7.27-4.69,13.92-8,20.01-6.78,15.49,17.3,24.61,24.01,10.67,14.61-26.88,26.53-50.86,33.35-69.37l9.34-17.34c14.53-28.26,5.34-37.35-5.34-36.02Z"/>
          <path id="Ante_B" data-name="Ante B" class="cls-4" d="m130.85,255.15l-2.67,4c-6.86,7.35-15.26,25.2-16.01,29.35-.77,4.26-21.43,51.27-22.68,50.69-4,8,9.34,16.01,14.67,8,.94-3.54,25.59-35.44,26.68-36.6,1.7-1.8,16.01-24.76,16.01-24.76,4.28-7,6.18-13.11,6.67-18.68.67-7.34-19.34-18.01-22.68-12.01Z"/>
          <path id="Palma" class="cls-4" d="m90.83,339.19l-9.34,5.34-4,12.01c-.85,2.3-1.39,4.61,0,7,.7.34,1.24.71,1.65,1.07,1.51,1.35,3.43,1.66,5.02,1.61,1.76,1.25,3.54,1.51,5.34.99,1.86.44,3.63-.1,5.34-1.33,1.33-2.67,6.01-8.04,8-13.34.72-1.56,1.31-3.22,1.33-5.34,1.33-6.67-9.34-10.67-13.34-8Z"/>
          <g id="Medio">
            <path id="F3" class="cls-4" d="m79.34,363.79l-4.72,7.5c-2.24,2.61,2.09,5.39,3.49,3.93l4-5.78c5.36-7.21,2.23-13.68-2.77-5.66Z"/>
            <path id="F2-11" data-name="F2" class="cls-4" d="m75.17,370.29c1.39-2.16,5.72.61,3.75,3.78l-3.6,4.64c-1.41.88-4.29-.5-2.91-3.38l2.77-5.04Z"/>
            <path id="F1-11" data-name="F1" class="cls-4" d="m68.93,380.39c-1.66,2.88,1.19,4.31,2.89,2.09l3.95-4.34c.95-1.45-1.96-4.25-3.09-3.36l-3.75,5.61Z"/>
          </g>
          <g id="Anelar-3" data-name="Anelar">
            <path id="F3-2" data-name="F3" class="cls-4" d="m84.86,365.08l-4.04,6.94c-1.94,2.43,2.06,4.81,3.29,3.45l3.44-5.36c4.57-6.01,1.55-11.8-2.69-5.04Z"/>
            <path id="F2-12" data-name="F2" class="cls-4" d="m81.29,371.1c1.19-2,5.2.37,3.51,3.3l-3.11,4.32c-1.25.84-3.9-.32-2.74-2.97l2.35-4.65Z"/>
            <path id="F1-12" data-name="F1" class="cls-4" d="m75.95,380.44c-1.41,2.66,1.21,3.87,2.68,1.8l3.44-4.06c.81-1.34-1.91-3.79-2.91-2.94l-3.21,5.2Z"/>
          </g>
          <g id="Midinho">
            <path id="F3-3" data-name="F3" class="cls-4" d="m90.55,365.71l-2.88,5.6c-1.42,1.98,1.81,3.68,2.72,2.57l2.47-4.34c5.24-7.21,1.97-11.67-2.31-3.83Z"/>
            <path id="F2-13" data-name="F2" class="cls-4" d="m88,370.56c.85-1.62,4.08.08,2.89,2.44l-2.26,3.51c-.94.71-3.07-.09-2.27-2.21l1.64-3.74Z"/>
            <path id="F1-13" data-name="F1" class="cls-4" d="m84.21,378.09c-.99,2.14,1.11,2.98,2.17,1.3l2.52-3.32c.58-1.08-1.65-2.89-2.4-2.19l-2.3,4.2Z"/>
          </g>
          <g id="Indicador">
            <path id="F3-4" data-name="F3" class="cls-4" d="m76.15,357.86l-4.54,6.94c-2.13,2.4,1.87,5.07,3.2,3.74l3.83-5.34c5.51-8,2.84-14.67-2.5-5.34Z"/>
            <path id="F2-14" data-name="F2" class="cls-4" d="m72.15,363.87c1.33-2,5.34.67,3.44,3.59l-3.44,4.28c-1.33.8-4-.54-2.67-3.2l2.67-4.67Z"/>
            <path id="F1-14" data-name="F1" class="cls-4" d="m66.15,373.2c-1.6,2.67,1.04,4.05,2.67,2l3.76-4c.91-1.34-1.76-4.01-2.84-3.19l-3.59,5.19Z"/>
          </g>
          <g id="Polegar">
            <path id="F3-5" data-name="F3" class="cls-4" d="m85.49,341.86l-6.67,2.67c-1.75.73-2.67,1.33-4,2.67-.32,1.39-2,6,2,6,6-.67,3.35-.38,6-.67,4-1.33,8-12.01,2.67-10.67Z"/>
            <path id="F2-15" data-name="F2" class="cls-4" d="m76.15,345.86c2.67-1.33,5.34,5.34,0,8l-5.34,2c-2.67.67-2.67-3.33-1.33-4.67,1.97-1.1,4.2-2.91,6.67-5.34Z"/>
            <path id="F1-15" data-name="F1" class="cls-4" d="m70.82,350.53c4-.67,2.67,4.67,0,5.34-1.42.3-2.77.34-4,0-1.48-.4-2.83-1.05-4-2-.76-1.05-.72-1.69,0-2h4c1.53-.19,2.84-.67,4-1.33Z"/>
          </g>
        </g>
        <g id="Esq-2" data-name="Esq">
          <path id="Braço-2" data-name="Braço" class="cls-4" d="m288.89,143.55c4.11.3,6.73.98,11.6,4.74,7.14,5.78,14.09,17.21,18.12,27.1,9.72,14.04,18.29,33.55,28.38,57.29,2.38,7.16,5.41,13.66,9.04,19.56,7.58,15.11-15.99,25.48-23.42,11.91-16-26.08-29.15-49.4-36.93-67.53l-10.23-16.83c-15.99-27.46-7.28-37.02,3.44-36.25Z"/>
          <path id="Ante_B-2" data-name="Ante B" class="cls-4" d="m354.64,250.98l2.87,3.86c7.24,6.98,16.56,24.36,17.52,28.47.99,4.22,24.08,50.08,25.3,49.43,4.42,7.78-8.49,16.47-14.23,8.76-1.12-3.49-27.41-34.05-28.56-35.15-1.79-1.71-17.28-23.89-17.28-23.89-4.64-6.77-6.85-12.77-7.64-18.3-1.05-7.29,18.37-19,22.02-13.18Z"/>
          <path id="Palma-2" data-name="Palma" class="cls-4" d="m399,332.81l9.6,4.84,4.62,11.78c.97,2.25,1.63,4.53.37,6.99-.68.38-1.2.77-1.59,1.16-1.43,1.43-3.34,1.84-4.93,1.87-1.69,1.35-3.46,1.69-5.28,1.26-1.83.54-3.63.09-5.4-1.05-1.47-2.59-6.42-7.71-8.69-12.9-.8-1.52-1.47-3.15-1.61-5.26-1.68-6.59,8.77-11.15,12.9-8.69Z"/>
          <g id="Medio-2" data-name="Medio">
            <path id="F3-6" data-name="F3" class="cls-4" d="m411.76,356.78l5.11,7.25c2.37,2.49-1.81,5.49-3.28,4.11l-4.29-5.56c-5.73-6.92-2.94-13.55,2.47-5.8Z"/>
            <path id="F2-16" data-name="F2" class="cls-4" d="m416.26,363.05c-1.5-2.09-5.68.91-3.55,3.97l3.84,4.45c1.46.8,4.26-.72,2.73-3.52l-3.03-4.89Z"/>
            <path id="F1-16" data-name="F1" class="cls-4" d="m423.02,372.81c1.81,2.79-.96,4.37-2.78,2.24l-4.17-4.13c-1.02-1.4,1.73-4.35,2.91-3.52l4.03,5.41Z"/>
          </g>
          <g id="Anelar-4" data-name="Anelar">
            <path id="F3-7" data-name="F3" class="cls-4" d="m406.31,358.36l4.4,6.72c2.07,2.33-1.81,4.91-3.1,3.62l-3.71-5.17c-4.87-5.77-2.17-11.7,2.42-5.17Z"/>
            <path id="F2-17" data-name="F2" class="cls-4" d="m410.19,364.18c-1.29-1.94-5.17.65-3.34,3.48l3.34,4.15c1.29.77,3.88-.52,2.59-3.1l-2.59-4.52Z"/>
            <path id="F1-17" data-name="F1" class="cls-4" d="m416.01,373.23c1.55,2.58-1.01,3.93-2.59,1.94l-3.64-3.87c-.88-1.3,1.71-3.88,2.75-3.09l3.48,5.03Z"/>
          </g>
          <g id="Midinho-2" data-name="Midinho">
            <path id="F3-8" data-name="F3" class="cls-4" d="m400.66,359.28l3.16,5.44c1.52,1.91-1.62,3.77-2.58,2.71l-2.69-4.2c-5.61-6.92-2.58-11.56,2.11-3.95Z"/>
            <path id="F2-18" data-name="F2" class="cls-4" d="m403.46,363.99c-.93-1.57-4.07.29-2.75,2.59l2.44,3.39c.98.66,3.06-.25,2.15-2.32l-1.84-3.65Z"/>
            <path id="F1-18" data-name="F1" class="cls-4" d="m407.64,371.31c1.11,2.09-.95,3.03-2.1,1.41l-2.69-3.18c-.64-1.05,1.49-2.97,2.28-2.31l2.52,4.08Z"/>
          </g>
          <g id="Indicador-2" data-name="Indicador">
            <path id="F3-9" data-name="F3" class="cls-4" d="m414.63,350.69l4.89,6.69c2.26,2.29-1.6,5.16-3,3.9l-4.11-5.13c-5.92-7.7-3.6-14.51,2.21-5.46Z"/>
            <path id="F2-19" data-name="F2" class="cls-4" d="m418.94,356.48c-1.44-1.93-5.29.95-3.25,3.77l3.66,4.1c1.37.73,3.97-.74,2.5-3.34l-2.91-4.52Z"/>
            <path id="F1-19" data-name="F1" class="cls-4" d="m425.42,365.49c1.73,2.58-.83,4.1-2.56,2.14l-3.96-3.79c-.98-1.29,1.55-4.09,2.66-3.33l3.86,4.99Z"/>
          </g>
          <g id="Polegar-2" data-name="Polegar">
            <path id="F3-10" data-name="F3" class="cls-4" d="m404.47,335.2l6.8,2.32c1.79.64,2.73,1.19,4.14,2.45.4,1.37,2.31,5.89-1.68,6.1-6.03-.35-3.37-.2-6.03-.35-4.07-1.12-8.62-11.57-3.22-10.52Z"/>
            <path id="F2-20" data-name="F2" class="cls-4" d="m414,338.7c-2.73-1.19-5.05,5.61.42,7.99l5.43,1.72c2.7.53,2.49-3.47,1.09-4.73-2.02-1-4.35-2.68-6.94-4.98Z"/>
            <path id="F1-20" data-name="F1" class="cls-4" d="m419.57,343.09c-4.03-.46-2.42,4.8.28,5.33,1.43.22,2.78.2,4-.21,1.46-.48,2.77-1.2,3.89-2.21.7-1.09.63-1.73-.1-2l-4,.21c-1.54-.11-2.87-.52-4.07-1.12Z"/>
          </g>
        </g>
      </g>
    </g>
  </g>
  <g id="Cabeça">
    <path id="Cabelo_costa" data-name="Cabelo costa" d="m282.92,64.39l-8.95,20.21h-68.76l-10.34-16.21s2.66-33.06,12.67-43.88,46.03-20.16,63.79,0c9.12,10.35,11.59,39.87,11.59,39.87Z"/>
    <path id="Rosto" class="cls-4" d="m229.56,17.7c-8,2.67-13.34,5.34-18.68,13.34s-6.67,12.01-8,29.35c-2.67,17.34,5.34,36.02,10.67,42.69,5.34,6.67,14.67,10.67,17.34,12.01,4,1.33,10.67,2.67,15.97,0,8.05-2.67,15.32-7.48,18.72-12.01,4-5.34,10.67-9.34,10.67-45.36-1.33-13.34-4-20.01-6.67-24.01-5.64-8.45-6.67-12.01-17.34-16.01-3.95-1.48-14.67-2.67-22.68,0Z"/>
    <g id="Orelhas">
      <path id="Dir-3" data-name="Dir" class="cls-4" d="m206.62,89.73s-.14,1.33-2.61,0c-5.13-5.34-7.8-10.67-7.8-10.67,0,0-1.33-4,0-8.58,1.33-.76,2.67-.76,4-.76s2.14,2.35,2.14,2.35c.13-.08,1,9.38,4.27,17.66Z"/>
      <path id="Edq" class="cls-4" d="m273.79,86.96s.26,1.32,2.6-.23c4.65-5.76,6.84-11.31,6.84-11.31,0,0,.98-4.1-.75-8.55-1.39-.64-2.72-.52-4.05-.41s-1.93,2.53-1.93,2.53c0,0-.92,9.4-2.71,17.97Z"/>
    </g>
    <g id="Visão">
      <g id="Cilios">
        <path id="Dir-4" data-name="Dir" class="cls-1" d="m213.55,71.06c1.47-1.66,13.66-3.42,16.01,2.67"/>
        <path id="esq" class="cls-1" d="m265.6,71.85c-1.47-1.66-13.66-3.42-16.01,2.67"/>
      </g>
      <g id="Sombrancelhas">
        <path id="Dir-5" data-name="Dir" class="cls-2" d="m229.56,67.06c.26.26.94-.39,0-1.33-1.33-1.33-6.67-2.67-15.34-2.67,6,.34,12.67,1.33,15.34,4Z"/>
        <path id="Esq-3" data-name="Esq" class="cls-2" d="m249.83,67.03c-.26.26-.94-.39,0-1.33,1.33-1.33,6.67-2.67,15.34-2.67-6,.34-12.67,1.33-15.34,4Z"/>
      </g>
      <g id="Olhos">
        <ellipse id="Dir-6" data-name="Dir" class="cls-2" cx="223.56" cy="72.39" rx="2" ry="2.67"/>
        <ellipse id="Esq-4" data-name="Esq" class="cls-2" cx="256.24" cy="73.06" rx="2" ry="2.67"/>
      </g>
    </g>
    <g id="Nariz">
      <path id="Subida" class="cls-1" d="m236.94,71.6s.62,7.46-1.38,10.8"/>
      <path id="Base-3" data-name="Base" class="cls-1" d="m236.3,89.29s3.93,3.11,7.45,0"/>
    </g>
    <path id="Boca" class="cls-1" d="m230.62,99.62c-.25-.15,3.73-.19,5.68-.83,1.56-.51,3.93-.38,5.27-.38s2.67-.67,4.65.37c3.35.69,5.03.5,5.03.5"/>
    <g id="Cabelo">
      <g id="Costeletas">
        <path id="Dir-7" data-name="Dir" d="m197.54,63.05c.24,6.23,2.96,13,6.68,19.99-1.91-7.68-2.53-15.24-1.34-22.66l.64-7.22s-5.98-2.11-5.98,1.89v8Z"/>
        <path id="Esq-5" data-name="Esq" d="m280,62.89c.08,6.24-2.27,13.14-5.62,20.31,1.51-7.76,1.87-12.14.54-22.81l-1.41-7.07s5.86-2.42,6.07,1.57.42,7.99.42,7.99Z"/>
      </g>
      <path id="Frente" d="m194.88,68.39c.51-.57,1.02-1.12,1.52-1.66,2.34-2.51,4.56-4.67,6.61-6.34,1.37-1.12,2.67-2.03,3.88-2.68-.46-7.18,2.41-15.38,6.67-24.01-2.91,8.51-5.06,16.67-5.34,24.01,6.44-3.21,12.26-5.58,17.14-6.67-1.35-7.24.47-17.36,2.87-28.01-1.23,10.05-1.84,19.05-.67,26.68,8.05-3.68,16.73-4.3,24.68,0,.98-8.22-.08-17.2-2.48-26.68,3.9,9.48,6.13,18.82,6.49,28.01,4.2.35,12.01,4,12.01,4,.68.04-.99-14.95-5.34-22.68,5.14,7.73,7.9,15.77,8,24.01l12.01,8c1.33-10.67-8-53.36-32.02-52.03-3.25-2.25-7.26-3.12-12.01-2.67,0,0-9.34-2.67-22.68,6.67-2.67,1.33-21.34,14.67-21.34,52.03Z"/>
    </g>
  </g>
</svg>